<svg width="337" height="342" viewBox="0 0 337 342" fill="none" xmlns="http://www.w3.org/2000/svg">
<path d="M287.917 219.413L207.002 62.2946L193.072 45.2922L168.695 37.508L143.294 52.257L129.774 62.2946L209.255 219.413H287.917Z" fill="#43D9B8"/>
<path d="M287.917 219.413L207.002 62.2946L193.072 45.2922L168.695 37.508L143.294 52.257L129.774 62.2946L209.255 219.413H287.917Z" fill="url(#paint0_linear_10_8)"/>
<path d="M49.4676 111.591L121.231 273.095L134.162 290.869L158.052 300.039L184.257 286.773L198.331 277.528L127.999 116.106L49.4676 111.591Z" fill="#43D9B8"/>
<path d="M49.4676 111.591L121.231 273.095L134.162 290.869L158.052 300.039L184.257 286.773L198.331 277.528L127.999 116.106L49.4676 111.591Z" fill="url(#paint1_linear_10_8)"/>
<g filter="url(#filter0_d_10_8)">
<path d="M99.4568 60.8607L21 219.823H99.4568L158.5 90.0288C167.031 71.2749 179.067 43.9352 197.107 53.8881C200.086 55.5321 203.26 57.809 206.592 60.8607C163.164 -10.4264 116.801 22.9638 99.4568 60.8607Z" fill="#43D9B8"/>
</g>
<g filter="url(#filter1_d_10_8)">
<path d="M228.516 280.699L315.968 126.503L237.64 121.999L171.245 248.19C161.652 266.424 148.066 293.027 130.627 282.056C127.747 280.243 124.709 277.788 121.558 274.55C160.822 348.212 209.026 317.538 228.516 280.699Z" fill="#43D9B8"/>
</g>
<defs>
<filter id="filter0_d_10_8" x="0.515205" y="0.153989" width="226.562" height="241.792" filterUnits="userSpaceOnUse" color-interpolation-filters="sRGB">
<feFlood flood-opacity="0" result="BackgroundImageFix"/>
<feColorMatrix in="SourceAlpha" type="matrix" values="0 0 0 0 0 0 0 0 0 0 0 0 0 0 0 0 0 0 127 0" result="hardAlpha"/>
<feOffset dy="1.63878"/>
<feGaussianBlur stdDeviation="10.2424"/>
<feComposite in2="hardAlpha" operator="out"/>
<feColorMatrix type="matrix" values="0 0 0 0 0 0 0 0 0 0 0 0 0 0 0 0 0 0 0.25 0"/>
<feBlend mode="normal" in2="BackgroundImageFix" result="effect1_dropShadow_10_8"/>
<feBlend mode="normal" in="SourceGraphic" in2="effect1_dropShadow_10_8" result="shape"/>
</filter>
<filter id="filter1_d_10_8" x="101.073" y="103.153" width="235.38" height="238.527" filterUnits="userSpaceOnUse" color-interpolation-filters="sRGB">
<feFlood flood-opacity="0" result="BackgroundImageFix"/>
<feColorMatrix in="SourceAlpha" type="matrix" values="0 0 0 0 0 0 0 0 0 0 0 0 0 0 0 0 0 0 127 0" result="hardAlpha"/>
<feOffset dy="1.63878"/>
<feGaussianBlur stdDeviation="10.2424"/>
<feComposite in2="hardAlpha" operator="out"/>
<feColorMatrix type="matrix" values="0 0 0 0 0 0 0 0 0 0 0 0 0 0 0 0 0 0 0.25 0"/>
<feBlend mode="normal" in2="BackgroundImageFix" result="effect1_dropShadow_10_8"/>
<feBlend mode="normal" in="SourceGraphic" in2="effect1_dropShadow_10_8" result="shape"/>
</filter>
<linearGradient id="paint0_linear_10_8" x1="252.683" y1="204.664" x2="129.569" y2="2.47898" gradientUnits="userSpaceOnUse">
<stop stop-color="#0F052F"/>
<stop offset="0.210293" stop-color="#0F052F"/>
<stop offset="1" stop-color="#43D9B8"/>
</linearGradient>
<linearGradient id="paint1_linear_10_8" x1="83.7967" y1="128.338" x2="195.102" y2="337.256" gradientUnits="userSpaceOnUse">
<stop stop-color="#0F052F"/>
<stop offset="0.210293" stop-color="#0F052F"/>
<stop offset="1" stop-color="#43D9B8"/>
</linearGradient>
</defs>
</svg>
